<?xml version="1.0" encoding="utf-8"?>
<!-- Generator: Adobe Illustrator 24.2.1, SVG Export Plug-In . SVG Version: 6.00 Build 0)  -->
<svg version="1.1" id="Layer_1" xmlns="http://www.w3.org/2000/svg" xmlns:xlink="http://www.w3.org/1999/xlink" x="0px" y="0px"
	 viewBox="0 0 34.1 34.1" style="enable-background:new 0 0 34.1 34.1;" xml:space="preserve">
<style type="text/css">
	.st0{fill:#FFFFFF;}
</style>
<g id="Layer_2_1_">
	<g id="Design">
		<path class="st0" d="M26.5,12.1c-7.4,0-7.5,7.4-7.5,7.5S18.5,27,26.5,27c0,0,6,0.3,6.6-4.4c0-0.4-0.2-0.7-0.6-0.8c0,0,0,0-0.1,0
			h-2.1c-0.3,0-0.6,0.2-0.7,0.5c-0.2,0.6-0.8,1.6-3,1.6c-1.6,0.1-3.1-1-3.4-2.6c-0.1-0.4,0.2-0.7,0.6-0.8c0,0,0.1,0,0.1,0h8.6
			c0.4,0,0.7-0.3,0.7-0.7C33.3,17.9,33,12.1,26.5,12.1z M23.6,17.9c-0.2,0-0.4-0.2-0.4-0.4c0,0,0-0.1,0-0.1c0.4-1.5,1.8-2.5,3.3-2.4
			c1.5-0.1,2.8,1,2.9,2.5c0,0.2-0.1,0.4-0.3,0.5c0,0,0,0-0.1,0H23.6z M14.7,16.1c-0.2,0-0.2-0.2-0.2-0.4c0-0.1,0.1-0.1,0.1-0.2
			c1.2-0.6,1.9-2,1.8-3.3c0-3.4-2.4-5.1-5.5-5.1H1.4c-0.3,0-0.5,0.2-0.5,0.5c0,0,0,0,0,0v18.4c0,0.3,0.2,0.5,0.5,0.5c0,0,0,0,0,0H11
			c0,0,6.2,0.2,6.2-5.7C17.1,20.8,17.3,17.1,14.7,16.1z M5.3,11c0-0.2,0.2-0.4,0.4-0.4H11c0,0,1.4,0,1.4,2s-0.8,2.3-1.7,2.3H5.7
			c-0.2,0-0.4-0.2-0.4-0.4L5.3,11z M10.7,23.1h-5c-0.2,0-0.4-0.2-0.4-0.4v-4.5c0-0.2,0.2-0.4,0.4-0.4H11c0,0,2.1,0,2,2.7
			C13,22.9,11.5,23.1,10.7,23.1z M22.3,7.9v1.7c0,0.2,0.2,0.4,0.4,0.4l0,0h7.3c0.2,0,0.4-0.2,0.4-0.4c0,0,0,0,0,0V7.9
			c0-0.2-0.2-0.4-0.3-0.4c0,0,0,0,0,0h-7.3C22.4,7.6,22.3,7.7,22.3,7.9C22.3,7.9,22.3,7.9,22.3,7.9z"/>
	</g>
</g>
</svg>
