<?xml version="1.0" encoding="utf-8"?>
<!-- Generator: Adobe Illustrator 24.2.1, SVG Export Plug-In . SVG Version: 6.00 Build 0)  -->
<svg version="1.1" id="Layer_1" xmlns="http://www.w3.org/2000/svg" xmlns:xlink="http://www.w3.org/1999/xlink" x="0px" y="0px"
	 viewBox="0 0 34.1 34.1" style="enable-background:new 0 0 34.1 34.1;" xml:space="preserve">
<style type="text/css">
	.st0{fill-rule:evenodd;clip-rule:evenodd;fill:#FFFFFF;}
</style>
<g id="Layer_2_1_">
	<g id="Design">
		<path class="st0" d="M12.8,17.2V33c0,0.2,0.2,0.4,0.4,0.4h5.9c0.2,0,0.4-0.2,0.4-0.4V16.9h4.3c0.2,0,0.4-0.2,0.4-0.4l0.4-4.8
			c0-0.2-0.2-0.4-0.4-0.4c0,0,0,0,0,0h-4.7V7.8c0-0.8,0.7-1.5,1.5-1.5h3.3c0.2,0,0.4-0.2,0.4-0.4V1.1c0-0.2-0.2-0.4-0.4-0.4h-5.5
			c-3.3,0-5.9,2.6-5.9,5.9c0,0,0,0,0,0v4.7H9.9c-0.2,0-0.4,0.2-0.4,0.4c0,0,0,0,0,0v4.8c0,0.2,0.2,0.4,0.4,0.4h2.9V17.2z"/>
	</g>
</g>
</svg>
