<svg xmlns="http://www.w3.org/2000/svg" viewBox="0 0 34.13 34.13"><defs><style>.cls-1{fill:#fff;}</style></defs><g id="Layer_2" data-name="Layer 2"><g id="Design"><path class="cls-1" d="M23.85,0H10.28A10.28,10.28,0,0,0,0,10.28V23.85A10.28,10.28,0,0,0,10.28,34.13H23.85A10.28,10.28,0,0,0,34.13,23.85V10.28A10.28,10.28,0,0,0,23.85,0Zm7.06,23.85a7.06,7.06,0,0,1-7.06,7.06H10.28a7.06,7.06,0,0,1-7.06-7.06V10.28a7.06,7.06,0,0,1,7.06-7.06H23.85a7.06,7.06,0,0,1,7.06,7.06Z"/><path class="cls-1" d="M17.12,8.86a8.43,8.43,0,1,0,8.43,8.43A8.44,8.44,0,0,0,17.12,8.86Zm0,13.82a5.4,5.4,0,1,1,5.4-5.39A5.4,5.4,0,0,1,17.12,22.68Z"/><circle class="cls-1" cx="26.04" cy="8.29" r="2.01"/></g></g></svg>