<?xml version="1.0" encoding="utf-8"?>
<!-- Generator: Adobe Illustrator 24.2.1, SVG Export Plug-In . SVG Version: 6.00 Build 0)  -->
<svg version="1.1" id="Layer_1" xmlns="http://www.w3.org/2000/svg" xmlns:xlink="http://www.w3.org/1999/xlink" x="0px" y="0px"
	 viewBox="0 0 34.1 34.1" style="enable-background:new 0 0 34.1 34.1;" xml:space="preserve">
<style type="text/css">
	.st0{fill:#FFFFFF;}
</style>
<g id="Layer_2_1_">
	<g id="Design">
		<path class="st0" d="M32.7,20.5v11c0,0.3-0.2,0.5-0.5,0.5h-5.7c-0.3,0-0.5-0.2-0.5-0.5V21.2c0-2.7-1-4.6-3.4-4.6
			c-1.6,0-2.9,1-3.4,2.5c-0.2,0.5-0.3,1.1-0.2,1.6v10.7c0,0.3-0.2,0.5-0.5,0.5h-5.7c-0.3,0-0.5-0.2-0.5-0.5c0-2.7,0.1-16.1,0-19.2
			c0-0.2,0.2-0.4,0.5-0.4h5.7c0.3,0,0.5,0.2,0.5,0.5v2.4v0.1l0,0v-0.1c1.2-2.2,3.6-3.4,6.1-3.3C29.4,11.4,32.7,14.3,32.7,20.5
			L32.7,20.5z M2.3,32H8c0.3,0,0.5-0.2,0.5-0.5c0,0,0,0,0,0V12.3c0-0.3-0.2-0.4-0.5-0.4H2.3c-0.3,0-0.5,0.2-0.5,0.5v19.1
			C1.8,31.8,2,32,2.3,32C2.3,32,2.3,32,2.3,32z"/>
		<circle class="st0" cx="5" cy="5.7" r="3.6"/>
	</g>
</g>
</svg>
